# xmcd
#
# Track frame offsets: 
#        150
#        19285
#        47628
#
# Disc length: 1064 seconds
#
# Revision: 1
# Processed by: cddbd v1.5.2PL0 Copyright (c) Steve Scherf et al.
# Submitted via: ExactAudioCopyFreeDBPlugin 1.0
#
DISCID=1e042603
DTITLE=Karyn White - Superwoman [CDS)
DYEAR=1989
DGENRE=Funk
TTITLE0=Superwoman (7" Version)
TTITLE1=Superwoman (Long Version)
TTITLE2=The Way You Love Me (New York Groove Edit)
EXTD=
EXTT0=
EXTT1=
EXTT2=
PLAYORDER=
